PathFileType	4	(X/Y/Z)	D:\walkingproject\041602jb\041602jb1.trc																																																																																		
DataRate	CameraRate	NumFrames	NumMarkers	Units	OrigDataRate	OrigDataStartFrame	OrigNumFrames																																																																														
120	120	11	28	mm	120	61	240																																																																														
Frame#	Time	head vertex			right ear			left ear			r scapula			right shoulder			left shoulder			sacrum			right elbow			right wrist			left elbow			left wrist			right g. trochanter			rigth mid-thigh			right knee			right tibia			right ankle			right heel			right mth			left g. trochanter			left mid-thigh			left knee			left tibia			left ankle			left heel			left mth			slider			fixed 1			fixed 2		
		X1	Y1	Z1	X2	Y2	Z2	X3	Y3	Z3	X4	Y4	Z4	X5	Y5	Z5	X6	Y6	Z6	X7	Y7	Z7	X8	Y8	Z8	X9	Y9	Z9	X10	Y10	Z10	X11	Y11	Z11	X12	Y12	Z12	X13	Y13	Z13	X14	Y14	Z14	X15	Y15	Z15	X16	Y16	Z16	X17	Y17	Z17	X18	Y18	Z18	X19	Y19	Z19	X20	Y20	Z20	X21	Y21	Z21	X22	Y22	Z22	X23	Y23	Z23	X24	Y24	Z24	X25	Y25	Z25	X26	Y26	Z26	X27	Y27	Z27	X28	Y28	Z28
																																																																																					
61	0.5	345.164	246.95076	1727.76196	402.30569	152.51921	1623.09937	397.92731	362.68253	1634.71252	235.30719	179.04047	1330.90479	381.56613	17.72413	1343.70898	378.73383	498.3226	1365.31775	288.38379	257.87256	984.56274	384.79312	-27.78765	1108.71387	617.74963	24.51763	1155.28088	413.58356	542.88226	1101.578	618.49231	457.51929	1157.64941	427.74551	57.63385	879.78015				359.11893	80.63588	479.28055	389.74646	134.73021	228.75128	343.81305	123.35787	95.28453	254.62224	164.95169	38.46188	452.17593	84.10741	13.37262	446.24524	456.65988	866.49835				379.79675	419.5321	481.96912	410.02451	390.20325	336.73923	336.18735	371.80756	92.32047	260.23984	324.35254	36.48975	447.66922	415.13538	2.67758	965.91101	-21.14479	9.93127	1955.65491	-11.8066	-14.00936	-4.60406	1.00681	9.24365
62	0.508	345.164	246.95076	1727.76196	402.30569	152.51921	1623.09937	397.48352	362.9126	1634.84985	235.30719	179.04047	1330.90479	381.56613	17.72413	1343.70898	378.73383	498.3226	1365.31775	288.38379	257.87256	984.56274	384.79312	-27.78765	1108.71387	617.74963	24.51763	1155.28088	413.58356	542.88226	1101.578	618.49231	457.51929	1157.64941	427.74551	57.63385	879.78015				359.11893	80.63588	479.28055	389.80856	135.48361	228.73669	343.81305	123.35787	95.28453	255.02554	165.02025	38.16899	452.38889	83.77427	13.14709	445.99683	456.70114	866.1925				379.79675	419.5321	481.96912	409.87042	390.01761	336.97653	336.18735	371.80756	92.32047	259.88281	324.29709	36.56703	447.66922	415.13538	2.67758	965.91101	-21.14479	9.93127	1955.65491	-11.8066	-14.00936	-4.2835	0.95118	8.9866
63	0.517	345.22031	247.26373	1727.74927	402.65189	152.37967	1623.11841	397.48352	362.9126	1634.84985	235.30719	179.04047	1330.90479	381.56613	17.72413	1343.70898	378.8028	498.85941	1365.43445	288.29123	257.37851	983.96783	384.79312	-27.78765	1108.71387	617.18524	24.87062	1155.45972	413.58356	542.88226	1101.578	618.49231	457.51929	1157.64941	427.74551	57.63385	879.78015				359.49329	80.6213	478.91141	389.74646	134.73021	228.75128	343.81305	123.35787	95.28453	255.02554	165.02025	38.16899	452.17593	84.10741	13.37262	446.24524	456.65988	866.49835				379.79675	419.5321	481.96912	410.38239	390.2991	336.64688	336.18735	371.80756	92.32047	260.23984	324.35254	36.48975	447.66922	415.13538	2.67758	965.91101	-21.14479	9.93127	1955.65491	-11.8066	-14.00936	-4.2835	0.95118	8.9866
64	0.525	345.164	246.95076	1727.76196	402.30569	152.51921	1623.09937	397.48352	362.9126	1634.84985	235.30719	179.04047	1330.90479	381.56613	17.72413	1343.70898	378.73383	498.3226	1365.31775	288.38379	257.87256	984.56274	384.79312	-27.78765	1108.71387	617.18524	24.87062	1155.45972	413.58356	542.88226	1101.578	618.49231	457.51929	1157.64941	427.74551	57.63385	879.78015				359.11893	80.63588	479.28055	389.55362	135.12564	229.07265	343.81305	123.35787	95.28453	255.05458	164.73804	38.36623	452.38889	83.77427	13.14709	446.24524	456.65988	866.49835				379.79675	419.5321	481.96912	409.6058	390.5625	336.60574	336.18735	371.80756	92.32047	259.88281	324.29709	36.56703	448.3663	414.76212	2.92389	965.91101	-21.14479	9.93127	1955.65491	-11.8066	-14.00936	-4.2835	0.95118	8.9866
65	0.533	345.22031	247.26373	1727.74927	402.65189	152.37967	1623.11841	397.48352	362.9126	1634.84985	235.03482	179.08307	1330.73938	381.56613	17.72413	1343.70898	378.73383	498.3226	1365.31775	288.29123	257.37851	983.96783	384.79312	-27.78765	1108.71387	617.18524	24.87062	1155.45972	413.58356	542.88226	1101.578	618.49231	457.51929	1157.64941	427.74551	57.63385	879.78015				359.49329	80.6213	478.91141	389.74646	134.73021	228.75128	344.12784	123.70636	94.96516	255.02554	165.02025	38.16899	452.17593	84.10741	13.37262	446.24524	456.65988	866.49835				379.79675	419.5321	481.96912	409.66357	390.87299	337.02725	336.18735	371.80756	92.32047	260.23984	324.35254	36.48975	447.66922	415.13538	2.67758	965.49023	-21.21316	10.06525	1955.65491	-11.8066	-14.00936	-4.2835	0.95118	8.9866
66	0.542	345.22031	247.26373	1727.74927	402.30569	152.51921	1623.09937	397.48352	362.9126	1634.84985	235.54993	179.18639	1330.66003	381.56613	17.72413	1343.70898	378.8028	498.85941	1365.43445	288.29123	257.37851	983.96783	384.79312	-27.78765	1108.71387	617.18524	24.87062	1155.45972	413.58356	542.88226	1101.578	618.49231	457.51929	1157.64941	427.74551	57.63385	879.78015				359.11893	80.63588	479.28055	389.80856	135.48361	228.73669	343.81305	123.35787	95.28453	255.02554	165.02025	38.16899	452.17593	84.10741	13.37262	445.99683	456.70114	866.1925				379.79675	419.5321	481.96912	410.4024	390.97415	336.75174	336.18735	371.80756	92.32047	260.23984	324.35254	36.48975	448.19611	414.83151	2.56801	965.91101	-21.14479	9.93127	1955.65491	-11.8066	-14.00936	-4.2835	0.95118	8.9866
67	0.55	345.22031	247.26373	1727.74927	401.85403	152.76248	1623.25269	397.48352	362.9126	1634.84985	235.54993	179.18639	1330.66003	381.56613	17.72413	1343.70898	378.8028	498.85941	1365.43445	288.38379	257.87256	984.56274	384.79312	-27.78765	1108.71387	617.18524	24.87062	1155.45972	413.61386	543.47479	1101.70032	618.49231	457.51929	1157.64941	427.74551	57.63385	879.78015				359.49329	80.6213	478.91141	389.80856	135.48361	228.73669	343.81305	123.35787	95.28453	254.59322	165.2339	38.26465	452.38889	83.77427	13.14709	446.24524	456.65988	866.49835				379.79675	419.5321	481.96912	409.98364	391.3334	336.61823	335.96484	372.28149	92.2765	259.88281	324.29709	36.56703	447.66922	415.13538	2.67758	965.67474	-21.40953	9.74698	1955.65491	-11.8066	-14.00936	-4.60406	1.00681	9.24365
68	0.558	345.22031	247.26373	1727.74927	401.85403	152.76248	1623.25269	397.48352	362.9126	1634.84985	235.54993	179.18639	1330.66003	381.56613	17.72413	1343.70898	378.8028	498.85941	1365.43445	288.29123	257.37851	983.96783	384.79312	-27.78765	1108.71387	617.18524	24.87062	1155.45972	413.61386	543.47479	1101.70032	618.49231	457.51929	1157.64941	427.74551	57.63385	879.78015				359.11893	80.63588	479.28055	389.80856	135.48361	228.73669	343.81305	123.35787	95.28453	255.02554	165.02025	38.16899	452.17593	84.10741	13.37262	446.24524	456.65988	866.49835				379.79675	419.5321	481.96912	410.4024	390.97415	336.75174	336.18735	371.80756	92.32047	260.23984	324.35254	36.48975	447.66922	415.13538	2.67758	965.91101	-21.14479	9.93127	1955.65491	-11.8066	-14.00936	-4.2835	0.95118	8.9866
69	0.567	345.22031	247.26373	1727.74927	401.85403	152.76248	1623.25269	397.40967	363.33807	1635.05786	235.54993	179.18639	1330.66003	381.56613	17.72413	1343.70898	378.8028	498.85941	1365.43445	288.38379	257.87256	984.56274	384.79312	-27.78765	1108.71387	617.18524	24.87062	1155.45972	413.61386	543.47479	1101.70032	618.49231	457.51929	1157.64941	427.74551	57.63385	879.78015				359.49329	80.6213	478.91141	389.80856	135.48361	228.73669	343.81305	123.35787	95.28453	255.02554	165.02025	38.16899	452.17593	84.10741	13.37262	446.24524	456.65988	866.49835				379.79675	419.5321	481.96912	409.98364	391.3334	336.61823	336.18735	371.80756	92.32047	260.23984	324.35254	36.48975	447.66922	415.13538	2.67758	965.91101	-21.14479	9.93127	1955.65491	-11.8066	-14.00936	-4.2835	0.95118	8.9866
70	0.575	345.22031	247.26373	1727.74927	401.85403	152.76248	1623.25269	397.13608	363.47794	1635.26526	235.54993	179.18639	1330.66003	381.56613	17.72413	1343.70898	378.8028	498.85941	1365.43445	288.38379	257.87256	984.56274	384.95804	-27.68299	1108.95508	617.18524	24.87062	1155.45972	413.61386	543.47479	1101.70032	618.49231	457.51929	1157.64941	427.74551	57.63385	879.78015				359.49329	80.6213	478.91141	389.74646	134.73021	228.75128	344.12784	123.70636	94.96516	255.02554	165.02025	38.16899	452.38889	83.77427	13.14709	445.99683	456.70114	866.1925				379.79675	419.5321	481.96912	409.98364	391.3334	336.61823	336.18735	371.80756	92.32047	260.23984	324.35254	36.48975	447.66922	415.13538	2.67758	965.67474	-21.40953	9.74698	1955.65491	-11.8066	-14.00936	-4.2835	0.95118	8.9866
71	0.583	345.22031	247.26373	1727.74927	401.85403	152.76248	1623.25269	397.40967	363.33807	1635.05786	235.54993	179.18639	1330.66003	381.56613	17.72413	1343.70898	378.8028	498.85941	1365.43445	288.38379	257.87256	984.56274	384.95804	-27.68299	1108.95508	617.18524	24.87062	1155.45972	413.45352	543.96686	1102.07617	618.49231	457.51929	1157.64941	427.74551	57.63385	879.78015				359.11893	80.63588	479.28055	389.80856	135.48361	228.73669	343.81305	123.35787	95.28453	254.62366	164.9234	38.2872	452.17593	84.10741	13.37262	446.24524	456.65988	866.49835				379.79675	419.5321	481.96912	410.4024	390.97415	336.75174	336.18735	371.80756	92.32047	260.23984	324.35254	36.48975	447.66922	415.13538	2.67758	965.91101	-21.14479	9.93127	1955.65491	-11.8066	-14.00936	-4.59167	1.15969	8.91397
